<?xml version="1.0" encoding="utf-8"?>
<!-- Generator: Adobe Illustrator 26.4.1, SVG Export Plug-In . SVG Version: 6.00 Build 0)  -->
<svg version="1.1" id="Layer_1" xmlns="http://www.w3.org/2000/svg" xmlns:xlink="http://www.w3.org/1999/xlink" x="0px" y="0px"
	 viewBox="0 0 1000 1000" style="enable-background:new 0 0 1000 1000;" xml:space="preserve">
<style type="text/css">
	.st0{fill:#D43B67;}
	.st1{fill:#EB5A85;}
	.st2{fill:#F47CA2;}
	.st3{fill:#FFA7C0;}
</style>
<path class="st0" d="M199,199.3l0-65.6c0-0.4,0.3-0.8,0.8-0.8l0,0l200,0c0.5,0,0.9,0.4,0.9,0.9v0l-0.1,65.3c0,0.4,0.2,0.5,0.5,0.5
	h65.6c0.3,0,0.5,0.2,0.5,0.5l0,0l0,65.7c0,0.3,0.1,0.4,0.4,0.4l64.5,0c0.2,0,0.3-0.2,0.3-0.3v0l0.1-65.4c0-0.4,0.2-0.6,0.5-0.6
	c1.3-0.1,3.5-0.2,6.8-0.2c19,0,38.4,0,58.1,0c0.8,0,1.2-0.4,1.2-1.2l0-64.8c0-0.2,0.2-0.4,0.4-0.5c0.9-0.2,1.7-0.2,2.5-0.2
	c64.6,0,130.6,0,198.1,0c0.3,0,0.6,0.2,0.6,0.6l0,0l0,65.7c0,0.2,0.2,0.4,0.4,0.4l65.7,0c0.4,0,0.6,0.2,0.6,0.6V266
	c0,0.2,0.2,0.4,0.4,0.4l65.6,0c0.4,0,0.7,0.3,0.7,0.7l0,0l0,200.2c0,0.4-0.4,0.8-0.8,0.8l-65.3,0c-0.3,0-0.5,0.2-0.5,0.5
	c0,0,0,0,0,0l-0.1,65.3c0,0.6-0.3,0.9-0.9,0.9h-64.8c-0.5,0-0.9,0.4-0.9,0.9l0,0l0,64.9c0,0.4-0.3,0.7-0.7,0.7l-65.7,0.1
	c-0.2,0-0.4,0.2-0.4,0.4l0,0l0,66c0,0.4-0.3,0.8-0.7,0.8l-65.5,0c-0.2,0-0.3,0.1-0.3,0.3v64.7c0,0.7-0.3,1.1-1,1.3
	c-0.4,0.1-0.8,0.1-1.2,0.1c-20.9,0-42,0-63.5-0.1c-0.6,0-1,0.5-1,1l0,0v65.1c0,0.4-0.3,0.7-0.6,0.7h0h-65.6c-0.3,0-0.5,0.2-0.5,0.5
	l0,65.2c0,0.6-0.5,1-1,1l-66.6,0c-0.3,0-0.5-0.2-0.5-0.5l-0.1-65.4c0-0.4-0.4-0.8-0.8-0.8l-64.9,0c-0.6,0-1.1-0.5-1.1-1.1l0,0l0-65
	c0-0.3-0.3-0.6-0.6-0.6l0,0l-65,0c-0.6,0-1.1-0.5-1.1-1.1l0.1-64.6c0-0.4-0.3-0.6-0.6-0.6h0l-65.9,0c-0.1,0-0.3-0.1-0.3-0.3l0-66.2
	c0-0.4-0.3-0.7-0.7-0.7h-65.4c-0.4,0-0.6-0.2-0.6-0.6c-0.1-21.3,0-41.8,0.1-61.5c0-1.2,0-2.5,0.1-3.8c0-0.5-0.2-0.7-0.7-0.7l-65.6,0
	c-0.3,0-0.6-0.3-0.6-0.6l0-64.9c0-0.7-0.5-1.2-1.2-1.2l0,0l-64.5,0c-0.5,0-0.8-0.4-0.8-0.8c0.1-34.3,0.1-68.2,0.1-101.7
	c0-14.7-0.3-28.6-0.1-43.8c0.2-15.7,0.2-32,0-48.9c0-1.9,0.1-3.8,0.2-5.8c0-0.5,0.5-0.9,1-0.9l64.8,0.1c0.5,0,0.7-0.2,0.7-0.7
	l0-65.4c0-0.3,0.3-0.6,0.6-0.6l0,0c17.9,0,36.2,0,54.7,0c3.6,0,7.2-0.5,10.7,0.2C198.8,200,199,199.8,199,199.3z M533.4,333.9l-66,0
	c-0.4,0-0.8-0.3-0.8-0.8c0,0,0,0,0,0l0.2-65.3c0-0.5-0.4-0.9-0.9-0.9l-65.5,0.2c-0.3,0-0.6-0.3-0.6-0.6l0-65.6
	c0-0.4-0.3-0.8-0.8-0.8l0,0c-54.4,0-108.9,0-163.4,0c-7.9,0-21.1,0.3-31.7-0.2c-1-0.1-1.9,0.1-2.6,0.3c-1,0.4-1.7,1.4-1.6,2.4
	l0.1,63.5c0,0.4-0.3,0.7-0.7,0.7l-65.6,0c-0.2,0-0.4,0.2-0.4,0.4l-0.1,198.5c0,0.6,0.5,1.2,1.2,1.2l64.9,0c0.5,0,0.8,0.3,0.8,0.8
	l0,64.2c0,0.9,0.6,1.6,1.5,1.8c4,0.7,7.7-0.4,11.6,0.1c3.4,0.4,6.8-0.1,10.3-0.1c13.5,0,27.7,0,42.5,0c0.5,0,0.9,0.4,0.9,0.9
	c0,0,0,0,0,0l0.1,64.5c0,1,0.5,1.5,1.5,1.5c11.2-0.1,23.2-0.2,34.8,0.1c6.3,0.2,12.7,0.2,19,0.1c3.3,0,6.7-0.2,10-0.6
	c1-0.1,1.5,0.4,1.5,1.4l0,64.5c0,0.6,0.5,1.1,1.1,1.1l64.9-0.1c0.5,0,0.7,0.2,0.7,0.7c0.2,4.6-0.5,8.9-0.4,13.6
	c0.4,16.8,0.3,33.7,0.1,50.6c0,0.9,0.7,1.7,1.7,1.7c0,0,0,0,0,0l65.3,0.2c-0.1,12.3-0.2,24.5-0.1,36.6c0,4.2-1.9,9.5-0.6,14.5
	c1.1,4.3,0.7,9.4,0.5,13.8c0,1.2,0.5,1.8,1.7,1.8l64.6,0c0.3,0,0.4-0.1,0.4-0.4l-0.1-65.8c0-0.2,0.1-0.3,0.3-0.3l65.1-0.2
	c0.9,0,1.6-0.7,1.6-1.7c0,0,0,0,0,0l-0.2-62.7c0-1.4,1.1-2.5,2.4-2.5c0,0,0,0,0,0l63.5,0.3c0.4,0,0.6-0.2,0.6-0.6l0-65.1
	c0-0.5,0.4-0.9,0.9-0.9c1.8-0.2,3.6-0.4,5.4-0.4c18.5,0.1,38.4,0.2,59.9,0.2c0.2,0,0.4-0.2,0.4-0.4V535c0-0.4,0.3-0.7,0.7-0.8
	c1.2-0.2,2.5-0.3,4-0.3c19.8,0,39.4-0.1,58.9-0.2c1.7,0,3.1-1.4,3.1-3.1c0.1-20.2,0.2-40.1,0.1-59.5c0-2.7,1.3-4.1,4-4
	c21.1,0.3,41.6,0.3,61.6,0.2c0.6,0,1.2-0.5,1.1-1.2l0.1-197.5c0-0.7-0.6-1.3-1.3-1.3l-64.2,0c-0.8,0-1.1-0.4-1.1-1.1l0-62
	c0-2.1-1.7-3.8-3.8-3.8c0,0,0,0,0,0c-22.6,0.2-44.7,0.2-66.4,0.1c-1.8,0-3.5-0.5-5.3-0.2c-1.2,0.2-2.5,0.3-3.9,0.3
	c-8.5-0.1-18.4-0.1-29.8,0c-21.2,0.1-46.8,0.1-76.5,0c-4.2,0-8.4,0.1-12.6,0.3c-1.2,0.1-2.2,1.1-2.1,2.4c0,0.1,0,0.2,0,0.3
	c0.5,2.6,0.2,5.8,0.2,7.7c0.1,18.4,0.2,36.6,0.1,54.8c0,0.7-0.5,1.2-1.2,1.3c-3.1,0.2-6.2,0.4-9.2,0.4c-16.7,0-35.4-0.1-56.1-0.3
	c-0.3,0-0.5,0.2-0.5,0.5L533.4,333.9z"/>
<path class="st1" d="M599.8,640.2c0.3-12.4,0.3-24.9,0.2-37.5c0-1.3,0.6-1.9,1.9-1.9c12.3-0.1,25-0.2,38-0.1
	c5.2,0,10.4,0.6,15.4,0.5c3.2-0.1,6.7,0,10.5,0.2c0.8,0,1.4-0.6,1.5-1.3c0-0.1,0-0.3,0-0.4c-0.6-2.2-0.7-4.4-0.5-6.8
	c0.8-7-0.1-13.9-0.1-21c0-57.3,0-113.9,0-169.8c0-0.7-0.6-1.3-1.3-1.3c0,0,0,0,0,0c-19.1,0.2-39.5,0.2-61.3,0.1c-1,0-2-0.1-3-0.4
	c-0.6-0.1-1-0.7-1-1.3l-0.1-64c0-0.3-0.3-0.6-0.6-0.7c-4.7-0.8-9.5-1.2-14.4-1.1c-2.1,0-4,0.9-6,0.4c-4-0.9-7.2,0.4-11.1,0.4
	c-11.4-0.1-22.9-0.2-34.4-0.1l-0.2-66.2c0-0.3,0.2-0.5,0.5-0.5c20.7,0.2,39.4,0.3,56.1,0.3c3,0,6.1-0.1,9.2-0.4
	c0.7-0.1,1.2-0.6,1.2-1.3c0.1-18.2,0-36.4-0.1-54.8c0-1.9,0.3-5.1-0.2-7.7c-0.2-1.2,0.6-2.4,1.8-2.7c0.1,0,0.2,0,0.3,0
	c4.2-0.2,8.5-0.3,12.6-0.3c29.8,0.2,55.3,0.2,76.5,0c11.3-0.1,21.2-0.1,29.8,0c1.4,0,2.7-0.1,3.9-0.3c1.7-0.3,3.5,0.2,5.3,0.2
	c21.7,0.1,43.9,0,66.4-0.1c2.1,0,3.8,1.7,3.9,3.8c0,0,0,0,0,0l0,62c0,0.8,0.4,1.1,1.1,1.1l64.2,0c0.7,0,1.3,0.6,1.3,1.3L866.7,466
	c0,0.6-0.5,1.2-1.1,1.2c-20,0.2-40.5,0.1-61.6-0.2c-2.7,0-4,1.3-4,4c0.1,19.4,0.1,39.2-0.1,59.5c0,1.7-1.4,3.1-3.1,3.1
	c-19.5,0.1-39.1,0.2-58.9,0.2c-1.5,0-2.8,0.1-4,0.3c-0.4,0.1-0.7,0.4-0.7,0.8v65.2c0,0.2-0.2,0.4-0.4,0.4c-21.4,0-41.4,0-59.9-0.2
	c-1.8,0-3.6,0.3-5.4,0.4c-0.5,0-0.9,0.4-0.9,0.9l0,65.1c0,0.4-0.2,0.6-0.6,0.6l-63.5-0.3c-1.4,0-2.5,1.1-2.5,2.5c0,0,0,0,0,0
	l0.2,62.7c0,0.9-0.7,1.7-1.6,1.7c0,0,0,0,0,0l-65.1,0.2c-0.2,0-0.3,0.1-0.3,0.3l0.1,65.8c0,0.3-0.1,0.4-0.4,0.4l-64.6,0
	c-1.2,0-1.7-0.6-1.7-1.8c0.1-4.4,0.6-9.5-0.5-13.8c-1.3-5,0.6-10.2,0.6-14.5c-0.1-12.1-0.1-24.3,0.1-36.6l65.7,0
	c0.5,0,0.7-0.2,0.7-0.7l-0.1-64c0-1.4,0.7-2.1,2.1-2.1c12.8,0.1,26.2,0.1,40.2-0.2c2.9,0,6,0.3,8.9,0.6c1.6,0.1,3.8,0.1,6.7-0.1
	c2.7-0.2,5.6-0.2,8.7,0.1"/>
<path class="st2" d="M599.4,334.3c0.3,0,0.6,0.3,0.6,0.7l0.1,64c0,0.6,0.4,1.1,1,1.3c1,0.2,2,0.3,3,0.3c21.8,0.2,42.2,0.1,61.3-0.1
	c0.7,0,1.3,0.6,1.3,1.3c0,0,0,0,0,0c0,1.1,0.6,198,0.6,198l-65.4,0.8l-2.3,67l-66,0.2c0,0-0.4,1.2-0.5,1.6l0.1,64
	c0,0.5-0.2,0.7-0.7,0.7l-65.7,0l-65.3-0.2c-0.9,0-1.7-0.8-1.7-1.7c0,0,0,0,0,0c0.2-16.8,0.3-33.7-0.1-50.6c-0.1-4.7,0.6-9,0.4-13.6
	c0-0.5-0.3-0.7-0.7-0.7l-64.9,0.1c-0.6,0-1.1-0.5-1.1-1.1l0-64.5c0-1-0.5-1.5-1.5-1.4c-3.3,0.3-6.6,0.5-10,0.6
	c-6.3,0.1-12.7,0-19-0.1c-11.6-0.3-23.5-0.2-34.8-0.1c-1,0-1.5-0.5-1.5-1.5l-0.1-64.5c0-0.5-0.4-0.9-0.9-0.9c0,0,0,0,0,0
	c-14.8,0.1-29,0.1-42.5,0c-3.4,0-6.9,0.5-10.3,0.1c-3.9-0.5-7.6,0.6-11.6-0.1c-0.9-0.2-1.5-0.9-1.5-1.8l0-64.2
	c0-0.5-0.3-0.8-0.8-0.8l-64.9,0c-0.7,0-1.2-0.5-1.2-1.2l0.1-198.5c0-0.2,0.2-0.4,0.4-0.4l65.6,0c0.4,0,0.7-0.3,0.7-0.7l-0.1-63.5
	c0-1.1,0.7-2,1.6-2.4c0.7-0.3,1.6-0.4,2.6-0.3c10.6,0.5,23.8,0.2,31.7,0.2c54.5,0,109,0,163.4,0c0.4,0,0.8,0.3,0.8,0.8l0,65.6
	c0,0.3,0.3,0.6,0.6,0.6l65.5-0.2c0.5,0,0.9,0.4,0.9,0.9l-0.2,65.3c0,0.4,0.3,0.8,0.8,0.8c0,0,0,0,0,0l66,0c11.5-0.1,23-0.1,34.4,0.1
	 M600.5,666.1 M266.9,334c0.2-0.1,0.4-0.2,0.6-0.2c26.5-0.2,48.1-0.2,64.7-0.1c0.4,0,0.8-0.3,0.8-0.7c0,0,0,0,0,0l0.2-64.9
	c0-0.4-0.3-0.7-0.7-0.7l0,0c-6.2,0-12.1-0.1-17.8-0.3c-9.1-0.4-22.4,0.3-33.4,0.2c-28.1,0-55.2,0-81.1,0c-0.4,0-0.7,0.3-0.7,0.7
	c0,0.1,0,0.1,0,0.2c0.3,1,0.4,2,0.4,3.1c-0.1,46.8-0.2,89.6,0,128.5c0,0.5,0.4,0.8,0.8,0.8l64.5,0c0.6,0,1.1-0.5,1.1-1.1l0.1-64.5
	C266.4,334.5,266.6,334.2,266.9,334z"/>
<path class="st3" d="M266.9,334c-0.3,0.2-0.5,0.5-0.5,0.9l-0.1,64.5c0,0.6-0.5,1.1-1.1,1.1l-64.5,0c-0.5,0-0.8-0.4-0.8-0.8
	c-0.1-38.8-0.1-81.6,0-128.5c0-1.1-0.1-2.2-0.4-3.1c-0.1-0.3,0.1-0.7,0.4-0.8c0.1,0,0.1,0,0.2,0c25.9,0,53-0.1,81.1,0
	c10.9,0,24.2-0.6,33.4-0.2c5.7,0.3,11.7,0.4,17.8,0.3c0.4,0,0.7,0.3,0.7,0.7l0,0L333,333c0,0.4-0.3,0.8-0.8,0.8c0,0,0,0,0,0
	c-16.6-0.2-38.2-0.1-64.7,0.1C267.3,333.8,267.1,333.9,266.9,334z"/>
</svg>
