<?xml version="1.0" encoding="UTF-8" standalone="no"?>
<!DOCTYPE svg PUBLIC "-//W3C//DTD SVG 1.1//EN" "http://www.w3.org/Graphics/SVG/1.1/DTD/svg11.dtd">
<svg xmlns="http://www.w3.org/2000/svg" version="1.1" viewBox="0.00 0.00 1000.00 1000.00">
<g stroke-width="2.00" fill="none" stroke-linecap="butt">
<path stroke="#6a1e34" vector-effect="non-scaling-stroke" d="
  M 198.25 199.91
  C 194.72 199.29 191.16 199.75 187.53 199.74
  Q 159.76 199.65 132.85 199.72
  A 0.58 0.58 0.0 0 0 132.27 200.30
  L 132.29 265.67
  Q 132.29 266.38 131.58 266.37
  L 66.78 266.23
  A 0.97 0.96 -87.7 0 0 65.82 267.12
  Q 65.61 270.05 65.63 272.87
  Q 65.86 298.24 65.63 321.75
  C 65.49 336.86 65.74 350.80 65.76 365.50
  Q 65.82 415.71 65.68 467.18
  A 0.84 0.84 0.0 0 0 66.52 468.02
  L 131.03 468.06
  A 1.22 1.22 0.0 0 1 132.25 469.28
  L 132.29 534.15
  A 0.61 0.61 0.0 0 0 132.90 534.76
  L 198.50 534.72
  Q 199.23 534.72 199.20 535.45
  Q 199.13 537.51 199.11 539.29
  Q 198.92 568.74 199.03 600.75
  Q 199.03 601.34 199.62 601.34
  L 265.05 601.34
  A 0.71 0.71 0.0 0 1 265.76 602.05
  L 265.73 668.24
  A 0.26 0.26 0.0 0 0 265.99 668.50
  L 331.86 668.47
  A 0.65 0.64 0.0 0 1 332.51 669.11
  L 332.39 733.75
  A 1.12 1.11 -90.0 0 0 333.50 734.87
  L 398.49 734.86
  A 0.63 0.63 0.0 0 1 399.12 735.49
  L 399.13 800.45
  A 1.07 1.07 0.0 0 0 400.20 801.52
  L 465.06 801.53
  A 0.79 0.79 0.0 0 1 465.85 802.32
  L 465.94 867.71
  Q 465.94 868.23 466.46 868.23
  L 533.02 868.25
  A 1.02 1.02 0.0 0 0 534.04 867.23
  L 534.01 802.00
  A 0.49 0.48 -0.0 0 1 534.50 801.52
  L 600.13 801.52
  A 0.65 0.65 0.0 0 0 600.78 800.87
  L 600.78 735.78
  A 1.04 1.03 -0.0 0 1 601.82 734.75
  Q 633.93 734.93 665.27 734.87
  Q 665.88 734.87 666.46 734.74
  Q 667.49 734.52 667.49 733.47
  L 667.49 668.74
  Q 667.49 668.48 667.76 668.48
  L 733.26 668.49
  A 0.75 0.74 90.0 0 0 734.00 667.74
  L 734.04 601.79
  A 0.42 0.42 0.0 0 1 734.46 601.37
  L 800.16 601.30
  A 0.71 0.71 0.0 0 0 800.87 600.59
  L 800.88 535.68
  A 0.94 0.94 0.0 0 1 801.82 534.74
  L 866.64 534.74
  Q 867.52 534.74 867.52 533.86
  L 867.61 468.60
  A 0.54 0.54 0.0 0 1 868.15 468.06
  L 933.46 468.08
  A 0.79 0.79 0.0 0 0 934.25 467.29
  L 934.26 267.06
  A 0.71 0.71 0.0 0 0 933.55 266.35
  L 867.98 266.38
  A 0.40 0.40 0.0 0 1 867.58 265.98
  L 867.58 200.27
  Q 867.58 199.71 867.02 199.71
  L 801.29 199.69
  A 0.40 0.40 0.0 0 1 800.89 199.29
  L 800.85 133.56
  A 0.56 0.55 -0.0 0 0 800.29 133.01
  Q 699.11 132.96 602.19 133.01
  Q 600.95 133.01 599.66 133.25
  A 0.49 0.48 85.1 0 0 599.26 133.73
  L 599.25 198.50
  Q 599.25 199.68 598.06 199.69
  Q 568.54 199.75 540.00 199.73
  Q 535.07 199.73 533.17 199.95
  Q 532.62 200.02 532.62 200.58
  L 532.53 265.99
  A 0.34 0.34 0.0 0 1 532.19 266.33
  L 467.70 266.36
  Q 467.29 266.36 467.29 265.95
  L 467.28 200.25
  A 0.53 0.52 -0.0 0 0 466.75 199.73
  L 401.19 199.73
  Q 400.65 199.73 400.65 199.19
  L 400.73 133.92
  A 0.93 0.93 0.0 0 0 399.80 132.99
  L 199.77 132.97
  A 0.76 0.76 0.0 0 0 199.01 133.73
  L 199.00 199.28
  Q 199.00 200.04 198.25 199.91"
/>
<path stroke="#805460" vector-effect="non-scaling-stroke" d="
  M 17.92 768.10
  Q 23.80 770.22 27.74 772.33
  Q 32.19 774.72 28.35 771.44
  Q 27.72 770.90 25.49 770.01
  Q 22.55 768.84 19.22 767.53
  Q 18.39 767.20 17.84 767.69
  A 0.24 0.24 0.0 0 0 17.92 768.10"
/>
<path stroke="#805460" vector-effect="non-scaling-stroke" d="
  M 19.39 774.19
  C 19.48 773.42 19.93 772.54 19.86 771.78
  A 0.82 0.81 4.2 0 0 19.25 771.08
  L 18.99 771.01
  Q 18.44 770.87 18.45 771.44
  L 18.52 774.07
  Q 18.54 774.83 19.20 774.45
  Q 19.37 774.35 19.39 774.19"
/>
<path stroke="#805460" vector-effect="non-scaling-stroke" d="
  M 28.66 779.15
  Q 28.76 779.47 29.04 779.44
  Q 29.56 779.37 29.24 778.96
  Q 28.52 778.03 27.37 778.06
  Q 23.34 778.17 18.76 777.52
  A 0.53 0.53 0.0 0 0 18.17 777.91
  L 18.09 778.22
  A 0.26 0.25 -82.1 0 0 18.33 778.55
  L 28.24 778.84
  A 0.46 0.45 -8.2 0 1 28.66 779.15"
/>
<path stroke="#805460" vector-effect="non-scaling-stroke" d="
  M 19.01 785.45
  C 20.01 785.21 21.10 785.63 21.65 786.51
  Q 21.97 787.03 22.33 786.54
  Q 24.18 783.93 27.24 785.76
  C 29.51 787.12 29.67 789.59 28.69 791.99
  Q 28.31 792.91 28.95 792.14
  C 30.53 790.23 29.90 786.86 28.41 785.32
  C 26.97 783.84 24.75 784.40 22.99 784.88
  Q 22.46 785.03 21.91 784.91
  Q 20.75 784.65 19.61 784.42
  Q 18.87 784.27 18.58 784.95
  Q 18.30 785.62 19.01 785.45"
/>
<path stroke="#805460" vector-effect="non-scaling-stroke" d="
  M 26.39 789.45
  A 0.99 0.99 0.0 0 0 25.80 788.67
  L 24.48 788.10
  A 0.99 0.99 0.0 0 0 23.10 789.02
  L 23.11 790.30
  A 0.99 0.99 0.0 0 0 23.88 791.26
  L 25.32 791.59
  A 0.99 0.99 0.0 0 0 26.53 790.50
  L 26.39 789.45"
/>
<path stroke="#805460" vector-effect="non-scaling-stroke" d="
  M 18.54 788.93
  Q 18.41 791.04 20.22 791.26
  Q 20.83 791.33 20.81 790.72
  L 20.75 788.78
  A 0.53 0.53 0.0 0 0 20.29 788.27
  L 19.47 788.16
  Q 18.60 788.05 18.54 788.93"
/>
<path stroke="#805460" vector-effect="non-scaling-stroke" d="
  M 28.20 798.66
  Q 25.81 795.90 23.25 794.57
  C 21.33 793.57 19.50 794.65 18.31 796.20
  Q 18.23 796.31 18.31 796.41
  L 18.47 796.61
  A 0.06 0.06 0.0 0 0 18.56 796.61
  C 22.22 793.14 27.33 798.85 29.07 801.68
  Q 29.60 802.55 29.52 801.53
  Q 29.41 800.05 28.20 798.66"
/>
<path stroke="#805460" vector-effect="non-scaling-stroke" d="
  M 21.50 802.24
  L 21.38 799.23
  A 0.35 0.35 0.0 0 0 21.02 798.89
  L 20.84 798.90
  A 2.39 1.80 -2.2 0 0 18.52 800.79
  L 18.52 800.91
  A 2.39 1.80 -2.2 0 0 20.98 802.61
  L 21.16 802.61
  A 0.35 0.35 0.0 0 0 21.50 802.24"
/>
<path stroke="#805460" vector-effect="non-scaling-stroke" d="
  M 24.43 799.44
  Q 23.90 799.08 23.99 799.71
  L 24.31 801.91
  Q 24.38 802.41 24.88 802.33
  Q 25.36 802.25 25.46 801.74
  Q 25.73 800.32 24.43 799.44"
/>
<path stroke="#805460" vector-effect="non-scaling-stroke" d="
  M 23.53 805.84
  L 23.31 805.50
  Q 23.09 805.13 22.66 805.18
  Q 20.37 805.42 18.44 806.66
  Q 18.37 806.71 18.40 806.79
  L 18.50 807.04
  Q 18.60 807.26 18.81 807.15
  C 22.75 805.16 27.52 809.53 28.93 812.73
  Q 29.02 812.92 29.20 812.83
  L 29.47 812.70
  A 0.34 0.34 0.0 0 0 29.64 812.29
  Q 28.26 808.24 24.41 806.60
  Q 23.85 806.36 23.53 805.84"
/>
<path stroke="#805460" vector-effect="non-scaling-stroke" d="
  M 21.49 813.44
  L 21.45 810.12
  A 0.24 0.24 0.0 0 0 21.21 809.89
  L 20.87 809.89
  A 2.42 1.86 -0.6 0 0 18.47 811.78
  L 18.47 811.86
  A 2.42 1.86 -0.6 0 0 20.91 813.69
  L 21.25 813.69
  A 0.24 0.24 0.0 0 0 21.49 813.44"
/>
<path stroke="#805460" vector-effect="non-scaling-stroke" d="
  M 24.23 812.79
  Q 24.19 812.91 24.14 813.03
  Q 23.97 813.56 24.46 813.31
  Q 25.05 813.02 25.45 812.55
  Q 25.81 812.11 25.55 811.61
  Q 25.23 811.02 24.74 810.63
  Q 24.18 810.18 24.18 810.90
  Q 24.19 811.81 24.24 812.71
  Q 24.25 812.75 24.23 812.79"
/>
<path stroke="#805460" vector-effect="non-scaling-stroke" d="
  M 22.79 817.98
  A 1.28 1.27 18.0 0 1 24.12 817.31
  Q 30.09 818.25 29.32 824.20
  Q 29.29 824.44 29.53 824.48
  L 29.54 824.48
  Q 29.77 824.52 29.81 824.29
  Q 30.75 818.98 26.69 817.00
  Q 24.42 815.89 22.17 817.21
  Q 21.74 817.46 21.25 817.36
  Q 19.96 817.08 18.51 817.44
  Q 18.45 817.46 18.46 817.51
  L 18.48 817.86
  Q 18.51 818.23 18.87 818.16
  Q 20.64 817.83 21.37 819.43
  Q 21.69 820.12 22.03 819.45
  L 22.79 817.98"
/>
<path stroke="#805460" vector-effect="non-scaling-stroke" d="
  M 24.52 821.92
  Q 25.10 822.18 25.72 822.26
  Q 26.29 822.34 26.15 821.78
  C 25.82 820.55 24.55 819.95 23.56 820.88
  A 0.51 0.50 48.9 0 0 23.52 821.57
  Q 23.82 821.94 24.22 821.88
  Q 24.37 821.85 24.52 821.92"
/>
<path stroke="#805460" vector-effect="non-scaling-stroke" d="
  M 19.37 823.71
  L 20.34 821.73
  A 0.46 0.45 24.4 0 0 20.10 821.11
  L 19.78 820.97
  Q 19.11 820.69 18.88 821.38
  Q 18.54 822.46 18.87 823.69
  Q 19.05 824.35 19.37 823.71"
/>
<path stroke="#805460" vector-effect="non-scaling-stroke" d="
  M 29.57 832.41
  A 0.09 0.09 0.0 0 0 29.71 832.31
  C 29.25 830.03 24.18 828.42 22.17 827.64
  C 21.14 827.25 20.28 826.44 19.60 825.59
  Q 19.25 825.17 18.92 825.61
  Q 18.55 826.10 17.95 826.35
  Q 16.96 826.77 17.99 827.10
  Q 23.91 829.01 29.57 832.41"
/>
<path stroke="#805460" vector-effect="non-scaling-stroke" d="
  M 19.38 832.86
  Q 19.86 831.86 19.90 830.73
  A 0.65 0.64 9.2 0 0 19.43 830.09
  L 18.98 829.97
  Q 18.40 829.81 18.43 830.40
  L 18.52 832.68
  Q 18.60 834.46 19.38 832.86"
/>
<path stroke="#805460" vector-effect="non-scaling-stroke" d="
  M 26.76 837.01
  Q 22.51 837.42 18.84 836.30
  Q 18.47 836.18 18.42 836.57
  L 18.34 837.19
  A 0.32 0.32 0.0 0 0 18.65 837.55
  L 27.41 837.84
  Q 27.87 837.86 28.26 838.10
  Q 28.62 838.32 29.03 838.45
  Q 29.92 838.75 29.33 838.03
  Q 28.37 836.85 26.76 837.01"
/>
<path stroke="#805460" vector-effect="non-scaling-stroke" d="
  M 19.63 839.85
  A 0.43 0.43 0.0 0 0 19.17 840.30
  L 19.19 840.81
  Q 19.21 841.46 19.84 841.30
  Q 20.22 841.21 20.36 840.85
  Q 20.72 839.91 19.63 839.85"
/>
<path stroke="#805460" vector-effect="non-scaling-stroke" d="
  M 29.02 850.19
  A 0.33 0.32 14.2 0 0 29.42 849.96
  Q 31.16 843.65 24.53 842.46
  A 0.42 0.40 -73.1 0 0 24.08 842.71
  L 23.91 843.12
  Q 23.76 843.46 24.13 843.49
  C 27.63 843.83 30.41 846.35 28.75 850.07
  A 0.04 0.03 -69.2 0 0 28.77 850.12
  L 29.02 850.19"
/>
<path stroke="#805460" vector-effect="non-scaling-stroke" d="
  M 18.72 844.72
  A 0.16 0.16 0.0 0 0 18.43 844.85
  Q 19.15 847.57 20.62 849.57
  Q 20.75 849.75 20.98 849.79
  Q 21.65 849.89 21.37 849.29
  Q 20.68 847.79 20.90 846.08
  A 0.33 0.32 -85.2 0 0 20.59 845.71
  Q 19.39 845.65 18.72 844.72"
/>
<path stroke="#805460" vector-effect="non-scaling-stroke" d="
  M 24.30 846.70
  L 22.92 849.90
  A 0.26 0.26 0.0 0 0 23.06 850.24
  L 23.22 850.31
  A 2.54 1.93 23.4 0 0 26.32 849.55
  L 26.38 849.42
  A 2.54 1.93 23.4 0 0 24.81 846.64
  L 24.65 846.57
  A 0.26 0.26 0.0 0 0 24.30 846.70"
/>
<path stroke="#805460" vector-effect="non-scaling-stroke" d="
  M 23.86 854.51
  Q 24.13 854.47 24.33 854.26
  Q 24.82 853.76 24.12 853.76
  L 21.98 853.77
  Q 21.40 853.77 21.37 854.35
  Q 21.34 855.02 21.66 855.47
  Q 21.95 855.88 22.33 855.55
  L 23.22 854.79
  Q 23.50 854.56 23.86 854.51"
/>
<path stroke="#805460" vector-effect="non-scaling-stroke" d="
  M 25.19 855.03
  Q 25.53 856.64 27.29 857.07
  Q 28.00 857.24 27.63 856.61
  Q 26.90 855.35 25.69 854.66
  Q 25.03 854.29 25.19 855.03"
/>
<path stroke="#805460" vector-effect="non-scaling-stroke" d="
  M 19.76 857.79
  Q 19.57 857.18 19.06 856.88
  A 0.48 0.48 0.0 0 0 18.40 857.51
  Q 18.68 858.08 19.31 858.25
  Q 19.95 858.41 19.76 857.79"
/>
<path stroke="#805460" vector-effect="non-scaling-stroke" d="
  M 22.82 857.87
  Q 22.01 857.55 21.31 857.83
  A 0.68 0.67 -24.8 0 0 20.96 858.77
  Q 21.41 859.62 22.31 859.75
  Q 22.77 859.82 23.05 859.45
  Q 23.35 859.03 23.30 858.50
  A 0.77 0.77 0.0 0 0 22.82 857.87"
/>
<path stroke="#805460" vector-effect="non-scaling-stroke" d="
  M 28.51 858.96
  Q 28.55 858.62 28.21 858.69
  Q 27.03 858.92 25.95 858.73
  Q 25.41 858.63 25.29 859.16
  Q 25.15 859.75 25.66 860.05
  Q 26.72 860.67 28.04 860.35
  A 0.48 0.48 0.0 0 0 28.41 859.92
  L 28.51 858.96"
/>
<path stroke="#805460" vector-effect="non-scaling-stroke" d="
  M 32.87 870.76
  Q 32.90 870.80 32.94 870.84
  Q 33.39 871.20 33.20 870.66
  Q 32.89 869.76 31.96 869.73
  Q 25.40 869.49 15.85 869.64
  A 0.49 0.49 0.0 0 0 15.37 870.14
  L 15.38 870.41
  Q 15.38 870.52 15.49 870.52
  Q 24.02 870.47 32.49 870.55
  Q 32.73 870.56 32.87 870.76"
/>
<path stroke="#805460" vector-effect="non-scaling-stroke" d="
  M 23.44 880.93
  Q 22.34 879.92 21.16 879.23
  Q 20.31 878.75 20.87 879.54
  Q 22.00 881.17 23.49 882.79
  Q 24.03 883.38 24.44 882.69
  L 25.32 881.20
  Q 25.61 880.70 25.07 880.90
  L 24.47 881.13
  A 1.02 1.01 -33.6 0 1 23.44 880.93"
/>
<path stroke="#805460" vector-effect="non-scaling-stroke" d="
  M 28.58 884.34
  Q 28.52 883.49 28.75 882.67
  Q 28.88 882.21 28.47 882.45
  L 24.48 884.74
  A 1.07 1.02 33.0 0 1 23.78 884.87
  C 22.42 884.69 21.58 883.73 20.13 883.78
  Q 18.24 883.84 16.45 884.59
  A 0.26 0.25 -23.0 0 0 16.31 884.92
  L 16.47 885.32
  Q 16.49 885.39 16.56 885.37
  Q 19.30 884.55 21.15 884.92
  Q 24.78 885.65 28.30 884.74
  Q 28.60 884.66 28.58 884.34"
/>
<path stroke="#805460" vector-effect="non-scaling-stroke" d="
  M 21.04 889.24
  A 0.23 0.23 0.0 0 0 21.38 889.09
  L 21.47 888.74
  Q 21.63 888.11 20.99 888.08
  L 20.53 888.06
  A 0.30 0.29 75.0 0 0 20.27 888.52
  Q 20.55 888.97 21.04 889.24"
/>
<path stroke="#805460" vector-effect="non-scaling-stroke" d="
  M 28.41 889.10
  C 29.70 890.61 28.98 893.37 28.53 895.11
  Q 28.51 895.17 28.58 895.19
  L 28.83 895.24
  Q 28.89 895.26 28.91 895.20
  Q 30.30 892.01 29.08 889.00
  Q 28.89 888.51 28.36 888.45
  Q 27.99 888.40 27.64 888.47
  Q 27.45 888.51 27.56 888.67
  Q 27.65 888.83 27.80 888.82
  Q 28.17 888.82 28.41 889.10"
/>
<path stroke="#805460" vector-effect="non-scaling-stroke" d="
  M 26.26 892.90
  C 24.34 894.51 22.66 892.54 22.13 890.61
  Q 21.64 888.83 21.47 890.66
  Q 21.30 892.39 22.31 893.79
  A 2.42 2.42 0.0 0 0 25.37 894.53
  Q 26.19 894.12 26.60 893.15
  Q 26.94 892.32 26.26 892.90"
/>
<path stroke="#805460" vector-effect="non-scaling-stroke" d="
  M 29.13 904.13
  Q 28.63 908.01 24.96 909.56
  Q 23.91 910.01 22.13 908.78
  A 0.44 0.44 0.0 0 0 21.45 909.05
  L 21.17 910.47
  Q 21.01 911.31 21.81 911.00
  Q 23.80 910.24 25.74 910.56
  Q 26.32 910.66 26.50 910.10
  Q 26.76 909.26 27.51 908.76
  C 29.51 907.43 29.88 903.24 29.61 901.23
  Q 29.54 900.72 29.20 900.33
  Q 28.38 899.37 27.55 898.39
  Q 27.25 898.04 27.33 897.57
  Q 27.35 897.47 27.40 897.38
  Q 27.98 896.46 26.99 896.89
  C 24.33 898.04 22.59 896.71 20.33 899.51
  Q 19.71 900.28 20.55 899.74
  C 24.29 897.32 29.79 898.93 29.13 904.13"
/>
<path stroke="#805460" vector-effect="non-scaling-stroke" d="
  M 22.95 902.70
  L 23.39 901.69
  Q 23.62 901.16 23.05 901.26
  Q 21.69 901.50 21.69 903.24
  A 2.52 2.51 7.6 0 0 23.56 905.68
  Q 25.80 906.26 26.90 903.94
  Q 26.96 903.81 26.85 903.72
  L 26.65 903.53
  Q 26.56 903.46 26.49 903.54
  Q 25.14 905.18 23.46 904.24
  A 1.21 1.21 0.0 0 1 22.95 902.70"
/>
<path stroke="#805460" vector-effect="non-scaling-stroke" d="
  M 28.86 918.07
  Q 30.00 920.15 28.71 922.64
  Q 28.68 922.69 28.73 922.72
  L 28.97 922.83
  Q 29.23 922.96 29.35 922.69
  C 30.28 920.52 30.24 917.94 28.46 916.31
  Q 27.71 915.63 27.33 914.74
  Q 27.13 914.29 26.64 914.28
  L 22.92 914.20
  Q 22.57 914.19 22.63 914.53
  L 22.72 915.03
  A 0.39 0.38 80.5 0 0 23.15 915.34
  Q 27.08 914.86 28.86 918.07"
/>
<path stroke="#805460" vector-effect="non-scaling-stroke" d="
  M 17.69 918.98
  L 17.96 921.10
  A 0.77 0.76 85.1 0 0 18.75 921.77
  L 19.45 921.75
  Q 19.89 921.73 19.99 921.30
  L 20.22 920.25
  Q 20.36 919.62 19.76 919.39
  Q 18.84 919.03 18.49 918.23"
/>
<path stroke="#6a1e34" vector-effect="non-scaling-stroke" d="
  M 18.49 918.23
  L 18.03 916.71
  A 1.39 1.34 -44.1 0 1 18.06 915.79
  Q 18.25 915.27 18.19 914.70
  Q 18.13 914.07 17.92 914.67
  Q 17.23 916.65 17.69 918.98"
/>
<path stroke="#ea7194" vector-effect="non-scaling-stroke" d="
  M 18.49 918.23
  Q 18.06 917.70 17.80 918.04
  Q 17.50 918.42 17.69 918.98"
/>
<path stroke="#805460" vector-effect="non-scaling-stroke" d="
  M 25.03 919.43
  L 25.46 919.50
  Q 26.21 919.61 26.05 918.87
  Q 25.93 918.35 25.40 918.23
  Q 24.61 918.04 24.28 918.78
  Q 23.35 920.90 21.78 922.40
  Q 21.66 922.52 21.79 922.63
  L 21.98 922.79
  Q 22.03 922.83 22.07 922.80
  Q 23.76 921.47 24.67 919.62
  A 0.36 0.35 16.5 0 1 25.03 919.43"
/>
<path stroke="#805460" vector-effect="non-scaling-stroke" d="
  M 22.10 930.61
  Q 23.46 930.53 24.62 930.40
  Q 25.27 930.33 24.70 930.01
  Q 22.85 928.97 21.45 930.50
  Q 21.18 930.80 21.58 930.80
  Q 21.90 930.80 22.10 930.61"
/>
<path stroke="#805460" vector-effect="non-scaling-stroke" d="
  M 24.61 936.57
  Q 24.46 936.87 24.79 936.87
  C 26.00 936.90 26.90 935.98 26.78 934.77
  Q 26.59 932.78 26.32 930.95
  Q 26.29 930.78 26.12 930.77
  L 25.60 930.74
  Q 25.35 930.73 25.38 930.98
  Q 25.84 934.06 24.61 936.57"
/>
<path stroke="#805460" vector-effect="non-scaling-stroke" d="
  M 29.42 931.55
  Q 29.19 931.61 29.24 931.84
  Q 29.91 934.74 28.36 937.12
  Q 27.96 937.73 28.59 937.37
  Q 29.05 937.10 29.22 936.61
  C 29.88 934.65 30.61 933.77 29.62 931.64
  Q 29.56 931.52 29.43 931.55
  L 29.42 931.55"
/>
<path stroke="#805460" vector-effect="non-scaling-stroke" d="
  M 21.42 935.37
  Q 21.72 936.04 22.36 936.37
  Q 22.94 936.67 22.95 936.02
  L 23.01 933.48
  Q 23.03 932.79 22.38 933.01
  Q 21.34 933.35 21.28 934.60
  A 1.74 1.71 35.1 0 0 21.42 935.37"
/>
<path stroke="#805460" vector-effect="non-scaling-stroke" d="
  M 27.48 942.03
  Q 29.66 944.78 29.20 947.49
  Q 29.16 947.72 29.39 947.69
  L 29.66 947.66
  Q 29.86 947.64 29.88 947.44
  C 30.05 945.71 29.89 943.67 28.59 942.36
  Q 27.31 941.07 27.11 939.37
  Q 27.07 938.98 26.70 939.10
  Q 25.02 939.65 23.32 939.46
  C 22.29 939.34 21.59 940.22 20.98 940.91
  Q 20.60 941.34 21.14 941.15
  C 23.03 940.50 26.01 940.16 27.48 942.03"
/>
<path stroke="#805460" vector-effect="non-scaling-stroke" d="
  M 25.64 946.94
  Q 26.16 947.11 26.72 947.05
  Q 27.37 946.99 27.09 946.41
  Q 26.86 945.94 26.44 945.60
  A 0.57 0.56 40.6 0 0 25.68 945.65
  L 25.06 946.30
  A 1.03 1.03 0.0 0 1 23.28 945.53
  L 23.37 943.93
  Q 23.43 942.85 22.70 943.64
  Q 21.52 944.91 21.09 946.51
  A 0.59 0.58 4.4 0 0 21.72 947.24
  L 25.03 946.88
  A 1.39 1.35 49.9 0 1 25.64 946.94"
/>
<path stroke="#805460" vector-effect="non-scaling-stroke" d="
  M 17.98 947.54
  Q 18.74 947.81 18.76 947.01
  L 18.77 946.39
  Q 18.79 945.42 17.91 945.84
  L 16.49 946.51
  Q 15.90 946.79 16.51 947.01
  L 17.98 947.54"
/>
<path stroke="#805460" vector-effect="non-scaling-stroke" d="
  M 29.10 957.12
  Q 29.09 957.78 28.92 958.46
  Q 28.69 959.40 29.13 958.54
  C 30.06 956.72 30.11 954.04 28.51 952.52
  Q 27.69 951.74 27.26 950.68
  Q 27.05 950.14 26.48 950.17
  L 22.11 950.33
  Q 21.58 950.34 21.65 950.87
  L 21.70 951.24
  A 0.29 0.29 0.0 0 0 22.02 951.49
  Q 29.17 950.76 29.10 957.12"
/>
<path stroke="#805460" vector-effect="non-scaling-stroke" d="
  M 23.28 955.00
  Q 23.62 954.21 22.80 954.43
  Q 22.33 954.56 22.00 954.87
  Q 21.64 955.21 21.55 955.69
  C 20.89 959.23 26.81 959.78 26.82 956.98
  Q 26.83 956.26 26.34 956.79
  Q 25.72 957.45 24.89 957.43
  Q 22.26 957.37 23.28 955.00"
/>
<path stroke="#805460" vector-effect="non-scaling-stroke" d="
  M 27.24 961.40
  L 16.57 962.51
  Q 16.18 962.55 16.20 962.94
  L 16.21 963.22
  Q 16.21 963.28 16.28 963.29
  Q 20.97 963.51 25.64 962.82
  C 29.08 962.31 29.51 966.48 29.03 968.86
  Q 28.78 970.09 29.26 968.93
  Q 30.96 964.84 27.50 961.49
  A 0.35 0.35 0.0 0 0 27.24 961.40"
/>
<path stroke="#805460" vector-effect="non-scaling-stroke" d="
  M 24.72 968.30
  Q 23.46 968.10 23.00 966.59
  A 1.13 1.12 86.8 0 0 22.15 965.82
  L 21.79 965.75
  Q 21.07 965.60 21.18 966.32
  Q 21.46 968.09 22.99 969.35
  C 24.32 970.45 26.41 969.27 26.82 967.82
  Q 27.11 966.79 26.34 967.53
  C 25.87 967.97 25.43 968.41 24.72 968.30"
/>
<path stroke="#805460" vector-effect="non-scaling-stroke" d="
  M 19.15 976.01
  C 20.73 974.89 22.62 975.07 24.31 974.27
  Q 26.25 973.37 28.30 972.76
  Q 28.54 972.69 28.57 972.45
  L 28.82 970.72
  Q 28.82 970.67 28.78 970.69
  L 17.59 976.23
  A 0.68 0.67 56.7 0 0 17.38 977.27
  Q 17.94 977.90 18.26 978.67
  Q 18.63 979.59 19.62 979.49
  Q 21.40 979.32 22.58 980.46
  Q 23.02 980.88 23.01 980.28
  L 22.99 978.27
  Q 22.98 977.58 22.32 977.77
  Q 21.00 978.17 19.71 978.05
  Q 16.66 977.78 19.15 976.01"
/>
<path stroke="#805460" vector-effect="non-scaling-stroke" d="
  M 25.34 980.12
  A 1.09 1.09 0.0 0 0 25.97 981.32
  L 28.94 982.62
  Q 29.85 983.02 29.20 982.26
  C 27.85 980.67 24.75 979.04 27.26 976.58
  Q 27.81 976.04 27.04 976.09
  Q 26.22 976.15 25.53 976.59
  Q 25.07 976.89 25.22 977.41
  Q 25.61 978.74 25.34 980.12"
/>
<path stroke="#e45c85" vector-effect="non-scaling-stroke" d="
  M 533.40 333.93
  L 467.36 333.96
  A 0.77 0.77 0.0 0 1 466.59 333.18
  L 466.75 267.88
  A 0.87 0.87 0.0 0 0 465.88 267.01
  L 400.39 267.21
  A 0.57 0.57 0.0 0 1 399.82 266.64
  L 399.85 201.09
  A 0.76 0.75 0.0 0 0 399.09 200.34
  Q 317.47 200.39 235.67 200.35
  C 227.81 200.35 214.61 200.68 203.97 200.16
  Q 202.41 200.08 201.37 200.50
  A 2.63 2.61 -10.9 0 0 199.72 202.93
  L 199.78 266.45
  A 0.73 0.73 0.0 0 1 199.05 267.18
  L 133.43 267.16
  A 0.41 0.40 90.0 0 0 133.03 267.57
  L 132.92 466.10
  A 1.18 1.17 -0.0 0 0 134.10 467.27
  L 199.01 467.25
  Q 199.77 467.25 199.77 468.01
  L 199.73 532.17
  A 1.79 1.79 0.0 0 0 201.20 533.94
  C 205.20 534.67 208.85 533.56 212.80 534.06
  C 216.21 534.49 219.63 533.98 223.07 533.99
  Q 243.31 534.04 265.54 533.94
  A 0.87 0.86 89.7 0 1 266.41 534.81
  L 266.47 599.31
  Q 266.47 600.78 267.94 600.77
  C 279.19 600.70 291.11 600.57 302.73 600.87
  Q 312.23 601.12 321.75 601.01
  Q 326.77 600.95 331.73 600.44
  Q 333.25 600.29 333.25 601.81
  L 333.20 666.31
  A 1.12 1.11 -90.0 0 0 334.31 667.43
  L 399.24 667.29
  Q 399.95 667.29 399.98 668.00
  C 400.18 672.61 399.49 676.92 399.61 681.64
  C 400.03 698.49 399.92 715.37 399.73 732.22
  A 1.70 1.69 -89.5 0 0 401.41 733.94
  L 466.67 734.16"
/>
<path stroke="#e04b76" vector-effect="non-scaling-stroke" d="
  M 466.67 734.16
  Q 466.46 752.65 466.61 770.75
  C 466.65 774.99 464.75 780.25 466.02 785.22
  C 467.13 789.51 466.67 794.66 466.54 799.05
  Q 466.49 800.82 468.25 800.82
  L 532.88 800.79
  Q 533.29 800.79 533.29 800.37
  L 533.21 734.56
  Q 533.21 734.23 533.54 734.22
  L 598.64 734.02
  A 1.65 1.65 0.0 0 0 600.28 732.36
  L 600.08 669.70
  A 2.46 2.46 0.0 0 1 602.55 667.23
  L 666.09 667.52
  Q 666.70 667.53 666.70 666.91
  L 666.72 601.81
  A 0.95 0.93 -2.7 0 1 667.58 600.88
  C 669.39 600.73 671.16 600.45 672.98 600.46
  Q 700.72 600.67 732.84 600.62
  A 0.45 0.44 -0.0 0 0 733.29 600.18
  L 733.29 534.97
  A 0.78 0.78 0.0 0 1 733.95 534.20
  Q 735.73 533.93 737.93 533.93
  Q 767.56 533.94 796.81 533.72
  A 3.16 3.16 0.0 0 0 799.95 530.58
  Q 800.17 500.23 800.01 471.11
  Q 799.99 467.01 804.00 467.06
  Q 835.59 467.48 865.59 467.22
  A 1.17 1.16 89.8 0 0 866.74 466.05
  L 866.80 268.51
  A 1.29 1.28 0.0 0 0 865.51 267.23
  L 801.35 267.25
  Q 800.21 267.25 800.21 266.10
  L 800.24 204.08
  A 3.83 3.83 0.0 0 0 796.38 200.24
  Q 762.51 200.48 729.94 200.39
  C 728.17 200.38 726.39 199.88 724.65 200.15
  Q 722.80 200.44 720.76 200.41
  Q 707.96 200.28 691.01 200.38
  Q 659.14 200.58 614.50 200.35
  Q 608.25 200.32 601.88 200.67
  A 2.26 2.25 82.9 0 0 599.79 203.36
  C 600.29 205.96 600.01 209.14 600.02 211.06
  Q 600.24 238.62 600.15 265.85
  A 1.29 1.28 -2.4 0 1 598.97 267.13
  Q 594.25 267.50 589.75 267.51
  Q 564.71 267.52 533.66 267.24
  Q 533.15 267.24 533.15 267.75
  L 533.40 333.93"
/>
<path stroke="#f06b94" vector-effect="non-scaling-stroke" d="
  M 466.67 734.16
  L 532.38 734.14
  Q 533.10 734.14 533.10 733.42
  L 533.04 669.47
  Q 533.03 667.37 535.12 667.40
  Q 554.37 667.58 575.27 667.23
  C 578.16 667.18 581.24 667.56 584.16 667.78
  Q 586.57 667.96 590.82 667.64
  Q 594.81 667.35 599.51 667.74
  A 1.06 1.06 0.0 0 0 600.49 666.11
  Q 598.55 663.06 599.98 659.80
  C 600.58 658.43 601.29 657.22 600.75 655.66
  Q 599.88 653.08 600.40 650.19
  C 600.98 646.99 599.73 643.51 599.80 640.22
  Q 600.21 621.59 599.96 602.67
  Q 599.93 600.76 601.84 600.74
  Q 620.32 600.54 639.82 600.59
  C 645.03 600.60 650.23 601.19 655.26 601.08
  Q 660.12 600.98 665.71 601.26
  A 1.42 1.41 84.3 0 0 667.15 599.49
  Q 666.29 596.21 666.68 592.70
  C 667.47 585.65 666.57 578.76 666.57 571.72
  Q 666.56 485.78 666.60 401.88
  A 1.30 1.29 -0.2 0 0 665.29 400.59
  Q 636.67 400.90 604.01 400.65
  Q 602.46 400.64 601.02 400.30
  A 1.31 1.29 -83.6 0 1 600.02 399.03
  L 599.96 335.04
  A 0.70 0.69 -85.7 0 0 599.37 334.35
  Q 592.35 333.18 584.93 333.22
  C 582.87 333.23 580.88 334.09 578.89 333.63
  C 574.89 332.71 571.70 334.06 567.82 334.01
  Q 550.68 333.79 533.40 333.93"
/>
<path stroke="#fa92b1" vector-effect="non-scaling-stroke" d="
  M 266.89 333.98
  Q 267.18 333.81 267.51 333.81
  Q 307.29 333.49 332.19 333.74
  A 0.76 0.76 0.0 0 0 332.96 332.98
  L 333.13 268.07
  A 0.74 0.74 0.0 0 0 332.39 267.33
  Q 323.16 267.38 314.55 267.00
  C 305.41 266.60 292.10 267.26 281.18 267.25
  Q 238.96 267.22 200.04 267.29
  A 0.66 0.66 0.0 0 0 199.41 268.14
  Q 199.84 269.57 199.83 271.27
  Q 199.62 341.51 199.80 399.72
  A 0.83 0.83 0.0 0 0 200.63 400.55
  L 265.10 400.52
  A 1.16 1.15 -89.7 0 0 266.25 399.37
  L 266.40 334.86
  Q 266.40 334.28 266.89 333.98"
/>
</g>

<path fill="#d43b67" d="
  M 199.00 199.28
  L 199.01 133.73
  A 0.76 0.76 0.0 0 1 199.77 132.97
  L 399.80 132.99
  A 0.93 0.93 0.0 0 1 400.73 133.92
  L 400.65 199.19
  Q 400.65 199.73 401.19 199.73
  L 466.75 199.73
  A 0.53 0.52 -0.0 0 1 467.28 200.25
  L 467.29 265.95
  Q 467.29 266.36 467.70 266.36
  L 532.19 266.33
  A 0.34 0.34 0.0 0 0 532.53 265.99
  L 532.62 200.58
  Q 532.62 200.02 533.17 199.95
  Q 535.07 199.73 540.00 199.73
  Q 568.54 199.75 598.06 199.69
  Q 599.25 199.68 599.25 198.50
  L 599.26 133.73
  A 0.49 0.48 85.1 0 1 599.66 133.25
  Q 600.95 133.01 602.19 133.01
  Q 699.11 132.96 800.29 133.01
  A 0.56 0.55 0.0 0 1 800.85 133.56
  L 800.89 199.29
  A 0.40 0.40 0.0 0 0 801.29 199.69
  L 867.02 199.71
  Q 867.58 199.71 867.58 200.27
  L 867.58 265.98
  A 0.40 0.40 0.0 0 0 867.98 266.38
  L 933.55 266.35
  A 0.71 0.71 0.0 0 1 934.26 267.06
  L 934.25 467.29
  A 0.79 0.79 0.0 0 1 933.46 468.08
  L 868.15 468.06
  A 0.54 0.54 0.0 0 0 867.61 468.60
  L 867.52 533.86
  Q 867.52 534.74 866.64 534.74
  L 801.82 534.74
  A 0.94 0.94 0.0 0 0 800.88 535.68
  L 800.87 600.59
  A 0.71 0.71 0.0 0 1 800.16 601.30
  L 734.46 601.37
  A 0.42 0.42 0.0 0 0 734.04 601.79
  L 734.00 667.74
  A 0.75 0.74 90.0 0 1 733.26 668.49
  L 667.76 668.48
  Q 667.49 668.48 667.49 668.74
  L 667.49 733.47
  Q 667.49 734.52 666.46 734.74
  Q 665.88 734.87 665.27 734.87
  Q 633.93 734.93 601.82 734.75
  A 1.04 1.03 -0.0 0 0 600.78 735.78
  L 600.78 800.87
  A 0.65 0.65 0.0 0 1 600.13 801.52
  L 534.50 801.52
  A 0.49 0.48 -0.0 0 0 534.01 802.00
  L 534.04 867.23
  A 1.02 1.02 0.0 0 1 533.02 868.25
  L 466.46 868.23
  Q 465.94 868.23 465.94 867.71
  L 465.85 802.32
  A 0.79 0.79 0.0 0 0 465.06 801.53
  L 400.20 801.52
  A 1.07 1.07 0.0 0 1 399.13 800.45
  L 399.12 735.49
  A 0.63 0.63 0.0 0 0 398.49 734.86
  L 333.50 734.87
  A 1.12 1.11 -90.0 0 1 332.39 733.75
  L 332.51 669.11
  A 0.65 0.64 0.0 0 0 331.86 668.47
  L 265.99 668.50
  A 0.26 0.26 0.0 0 1 265.73 668.24
  L 265.76 602.05
  A 0.71 0.71 0.0 0 0 265.05 601.34
  L 199.62 601.34
  Q 199.03 601.34 199.03 600.75
  Q 198.92 568.74 199.11 539.29
  Q 199.13 537.51 199.20 535.45
  Q 199.23 534.72 198.50 534.72
  L 132.90 534.76
  A 0.61 0.61 0.0 0 1 132.29 534.15
  L 132.25 469.28
  A 1.22 1.22 0.0 0 0 131.03 468.06
  L 66.52 468.02
  A 0.84 0.84 0.0 0 1 65.68 467.18
  Q 65.82 415.71 65.76 365.50
  C 65.74 350.80 65.49 336.86 65.63 321.75
  Q 65.86 298.24 65.63 272.87
  Q 65.61 270.05 65.82 267.12
  A 0.97 0.96 -87.7 0 1 66.78 266.23
  L 131.58 266.37
  Q 132.29 266.38 132.29 265.67
  L 132.27 200.30
  A 0.58 0.58 0.0 0 1 132.85 199.72
  Q 159.76 199.65 187.53 199.74
  C 191.16 199.75 194.72 199.29 198.25 199.91
  Q 199.00 200.04 199.00 199.28
  Z
  M 533.40 333.93
  L 467.36 333.96
  A 0.77 0.77 0.0 0 1 466.59 333.18
  L 466.75 267.88
  A 0.87 0.87 0.0 0 0 465.88 267.01
  L 400.39 267.21
  A 0.57 0.57 0.0 0 1 399.82 266.64
  L 399.85 201.09
  A 0.76 0.75 0.0 0 0 399.09 200.34
  Q 317.47 200.39 235.67 200.35
  C 227.81 200.35 214.61 200.68 203.97 200.16
  Q 202.41 200.08 201.37 200.50
  A 2.63 2.61 -10.9 0 0 199.72 202.93
  L 199.78 266.45
  A 0.73 0.73 0.0 0 1 199.05 267.18
  L 133.43 267.16
  A 0.41 0.40 90.0 0 0 133.03 267.57
  L 132.92 466.10
  A 1.18 1.17 -0.0 0 0 134.10 467.27
  L 199.01 467.25
  Q 199.77 467.25 199.77 468.01
  L 199.73 532.17
  A 1.79 1.79 0.0 0 0 201.20 533.94
  C 205.20 534.67 208.85 533.56 212.80 534.06
  C 216.21 534.49 219.63 533.98 223.07 533.99
  Q 243.31 534.04 265.54 533.94
  A 0.87 0.86 89.7 0 1 266.41 534.81
  L 266.47 599.31
  Q 266.47 600.78 267.94 600.77
  C 279.19 600.70 291.11 600.57 302.73 600.87
  Q 312.23 601.12 321.75 601.01
  Q 326.77 600.95 331.73 600.44
  Q 333.25 600.29 333.25 601.81
  L 333.20 666.31
  A 1.12 1.11 -90.0 0 0 334.31 667.43
  L 399.24 667.29
  Q 399.95 667.29 399.98 668.00
  C 400.18 672.61 399.49 676.92 399.61 681.64
  C 400.03 698.49 399.92 715.37 399.73 732.22
  A 1.70 1.69 -89.5 0 0 401.41 733.94
  L 466.67 734.16
  Q 466.46 752.65 466.61 770.75
  C 466.65 774.99 464.75 780.25 466.02 785.22
  C 467.13 789.51 466.67 794.66 466.54 799.05
  Q 466.49 800.82 468.25 800.82
  L 532.88 800.79
  Q 533.29 800.79 533.29 800.37
  L 533.21 734.56
  Q 533.21 734.23 533.54 734.22
  L 598.64 734.02
  A 1.65 1.65 0.0 0 0 600.28 732.36
  L 600.08 669.70
  A 2.46 2.46 0.0 0 1 602.55 667.23
  L 666.09 667.52
  Q 666.70 667.53 666.70 666.91
  L 666.72 601.81
  A 0.95 0.93 -2.7 0 1 667.58 600.88
  C 669.39 600.73 671.16 600.45 672.98 600.46
  Q 700.72 600.67 732.84 600.62
  A 0.45 0.44 -0.0 0 0 733.29 600.18
  L 733.29 534.97
  A 0.78 0.78 0.0 0 1 733.95 534.20
  Q 735.73 533.93 737.93 533.93
  Q 767.56 533.94 796.81 533.72
  A 3.16 3.16 0.0 0 0 799.95 530.58
  Q 800.17 500.23 800.01 471.11
  Q 799.99 467.01 804.00 467.06
  Q 835.59 467.48 865.59 467.22
  A 1.17 1.16 89.8 0 0 866.74 466.05
  L 866.80 268.51
  A 1.29 1.28 0.0 0 0 865.51 267.23
  L 801.35 267.25
  Q 800.21 267.25 800.21 266.10
  L 800.24 204.08
  A 3.83 3.83 0.0 0 0 796.38 200.24
  Q 762.51 200.48 729.94 200.39
  C 728.17 200.38 726.39 199.88 724.65 200.15
  Q 722.80 200.44 720.76 200.41
  Q 707.96 200.28 691.01 200.38
  Q 659.14 200.58 614.50 200.35
  Q 608.25 200.32 601.88 200.67
  A 2.26 2.25 82.9 0 0 599.79 203.36
  C 600.29 205.96 600.01 209.14 600.02 211.06
  Q 600.24 238.62 600.15 265.85
  A 1.29 1.28 -2.4 0 1 598.97 267.13
  Q 594.25 267.50 589.75 267.51
  Q 564.71 267.52 533.66 267.24
  Q 533.15 267.24 533.15 267.75
  L 533.40 333.93
  Z"
/>
<path fill="#eb5a85" d="
  M 466.67 734.16
  L 532.38 734.14
  Q 533.10 734.14 533.10 733.42
  L 533.04 669.47
  Q 533.03 667.37 535.12 667.40
  Q 554.37 667.58 575.27 667.23
  C 578.16 667.18 581.24 667.56 584.16 667.78
  Q 586.57 667.96 590.82 667.64
  Q 594.81 667.35 599.51 667.74
  A 1.06 1.06 0.0 0 0 600.49 666.11
  Q 598.55 663.06 599.98 659.80
  C 600.58 658.43 601.29 657.22 600.75 655.66
  Q 599.88 653.08 600.40 650.19
  C 600.98 646.99 599.73 643.51 599.80 640.22
  Q 600.21 621.59 599.96 602.67
  Q 599.93 600.76 601.84 600.74
  Q 620.32 600.54 639.82 600.59
  C 645.03 600.60 650.23 601.19 655.26 601.08
  Q 660.12 600.98 665.71 601.26
  A 1.42 1.41 84.3 0 0 667.15 599.49
  Q 666.29 596.21 666.68 592.70
  C 667.47 585.65 666.57 578.76 666.57 571.72
  Q 666.56 485.78 666.60 401.88
  A 1.30 1.29 -0.2 0 0 665.29 400.59
  Q 636.67 400.90 604.01 400.65
  Q 602.46 400.64 601.02 400.30
  A 1.31 1.29 -83.6 0 1 600.02 399.03
  L 599.96 335.04
  A 0.70 0.69 -85.7 0 0 599.37 334.35
  Q 592.35 333.18 584.93 333.22
  C 582.87 333.23 580.88 334.09 578.89 333.63
  C 574.89 332.71 571.70 334.06 567.82 334.01
  Q 550.68 333.79 533.40 333.93
  L 533.15 267.75
  Q 533.15 267.24 533.66 267.24
  Q 564.71 267.52 589.75 267.51
  Q 594.25 267.50 598.97 267.13
  A 1.29 1.28 -2.4 0 0 600.15 265.85
  Q 600.24 238.62 600.02 211.06
  C 600.01 209.14 600.29 205.96 599.79 203.36
  A 2.26 2.25 82.9 0 1 601.88 200.67
  Q 608.25 200.32 614.50 200.35
  Q 659.14 200.58 691.01 200.38
  Q 707.96 200.28 720.76 200.41
  Q 722.80 200.44 724.65 200.15
  C 726.39 199.88 728.17 200.38 729.94 200.39
  Q 762.51 200.48 796.38 200.24
  A 3.83 3.83 0.0 0 1 800.24 204.08
  L 800.21 266.10
  Q 800.21 267.25 801.35 267.25
  L 865.51 267.23
  A 1.29 1.28 -0.0 0 1 866.80 268.51
  L 866.74 466.05
  A 1.17 1.16 89.8 0 1 865.59 467.22
  Q 835.59 467.48 804.00 467.06
  Q 799.99 467.01 800.01 471.11
  Q 800.17 500.23 799.95 530.58
  A 3.16 3.16 0.0 0 1 796.81 533.72
  Q 767.56 533.94 737.93 533.93
  Q 735.73 533.93 733.95 534.20
  A 0.78 0.78 0.0 0 0 733.29 534.97
  L 733.29 600.18
  A 0.45 0.44 -0.0 0 1 732.84 600.62
  Q 700.72 600.67 672.98 600.46
  C 671.16 600.45 669.39 600.73 667.58 600.88
  A 0.95 0.93 -2.7 0 0 666.72 601.81
  L 666.70 666.91
  Q 666.70 667.53 666.09 667.52
  L 602.55 667.23
  A 2.46 2.46 0.0 0 0 600.08 669.70
  L 600.28 732.36
  A 1.65 1.65 0.0 0 1 598.64 734.02
  L 533.54 734.22
  Q 533.21 734.23 533.21 734.56
  L 533.29 800.37
  Q 533.29 800.79 532.88 800.79
  L 468.25 800.82
  Q 466.49 800.82 466.54 799.05
  C 466.67 794.66 467.13 789.51 466.02 785.22
  C 464.75 780.25 466.65 774.99 466.61 770.75
  Q 466.46 752.65 466.67 734.16
  Z"
/>
<path fill="#f47ca2" d="
  M 533.40 333.93
  Q 550.68 333.79 567.82 334.01
  C 571.70 334.06 574.89 332.71 578.89 333.63
  C 580.88 334.09 582.87 333.23 584.93 333.22
  Q 592.35 333.18 599.37 334.35
  A 0.70 0.69 -85.7 0 1 599.96 335.04
  L 600.02 399.03
  A 1.31 1.29 -83.6 0 0 601.02 400.30
  Q 602.46 400.64 604.01 400.65
  Q 636.67 400.90 665.29 400.59
  A 1.30 1.29 -0.2 0 1 666.60 401.88
  Q 666.56 485.78 666.57 571.72
  C 666.57 578.76 667.47 585.65 666.68 592.70
  Q 666.29 596.21 667.15 599.49
  A 1.42 1.41 84.3 0 1 665.71 601.26
  Q 660.12 600.98 655.26 601.08
  C 650.23 601.19 645.03 600.60 639.82 600.59
  Q 620.32 600.54 601.84 600.74
  Q 599.93 600.76 599.96 602.67
  Q 600.21 621.59 599.80 640.22
  C 599.73 643.51 600.98 646.99 600.40 650.19
  Q 599.88 653.08 600.75 655.66
  C 601.29 657.22 600.58 658.43 599.98 659.80
  Q 598.55 663.06 600.49 666.11
  A 1.06 1.06 0.0 0 1 599.51 667.74
  Q 594.81 667.35 590.82 667.64
  Q 586.57 667.96 584.16 667.78
  C 581.24 667.56 578.16 667.18 575.27 667.23
  Q 554.37 667.58 535.12 667.40
  Q 533.03 667.37 533.04 669.47
  L 533.10 733.42
  Q 533.10 734.14 532.38 734.14
  L 466.67 734.16
  L 401.41 733.94
  A 1.70 1.69 -89.5 0 1 399.73 732.22
  C 399.92 715.37 400.03 698.49 399.61 681.64
  C 399.49 676.92 400.18 672.61 399.98 668.00
  Q 399.95 667.29 399.24 667.29
  L 334.31 667.43
  A 1.12 1.11 -90.0 0 1 333.20 666.31
  L 333.25 601.81
  Q 333.25 600.29 331.73 600.44
  Q 326.77 600.95 321.75 601.01
  Q 312.23 601.12 302.73 600.87
  C 291.11 600.57 279.19 600.70 267.94 600.77
  Q 266.47 600.78 266.47 599.31
  L 266.41 534.81
  A 0.87 0.86 89.7 0 0 265.54 533.94
  Q 243.31 534.04 223.07 533.99
  C 219.63 533.98 216.21 534.49 212.80 534.06
  C 208.85 533.56 205.20 534.67 201.20 533.94
  A 1.79 1.79 0.0 0 1 199.73 532.17
  L 199.77 468.01
  Q 199.77 467.25 199.01 467.25
  L 134.10 467.27
  A 1.18 1.17 -0.0 0 1 132.92 466.10
  L 133.03 267.57
  A 0.41 0.40 90.0 0 1 133.43 267.16
  L 199.05 267.18
  A 0.73 0.73 0.0 0 0 199.78 266.45
  L 199.72 202.93
  A 2.63 2.61 -10.9 0 1 201.37 200.50
  Q 202.41 200.08 203.97 200.16
  C 214.61 200.68 227.81 200.35 235.67 200.35
  Q 317.47 200.39 399.09 200.34
  A 0.76 0.75 -0.0 0 1 399.85 201.09
  L 399.82 266.64
  A 0.57 0.57 0.0 0 0 400.39 267.21
  L 465.88 267.01
  A 0.87 0.87 0.0 0 1 466.75 267.88
  L 466.59 333.18
  A 0.77 0.77 0.0 0 0 467.36 333.96
  L 533.40 333.93
  Z
  M 266.89 333.98
  Q 267.18 333.81 267.51 333.81
  Q 307.29 333.49 332.19 333.74
  A 0.76 0.76 0.0 0 0 332.96 332.98
  L 333.13 268.07
  A 0.74 0.74 0.0 0 0 332.39 267.33
  Q 323.16 267.38 314.55 267.00
  C 305.41 266.60 292.10 267.26 281.18 267.25
  Q 238.96 267.22 200.04 267.29
  A 0.66 0.66 0.0 0 0 199.41 268.14
  Q 199.84 269.57 199.83 271.27
  Q 199.62 341.51 199.80 399.72
  A 0.83 0.83 0.0 0 0 200.63 400.55
  L 265.10 400.52
  A 1.16 1.15 -89.7 0 0 266.25 399.37
  L 266.40 334.86
  Q 266.40 334.28 266.89 333.98
  Z"
/>
<path fill="#ffa7c0" d="
  M 266.89 333.98
  Q 266.40 334.28 266.40 334.86
  L 266.25 399.37
  A 1.16 1.15 -89.7 0 1 265.10 400.52
  L 200.63 400.55
  A 0.83 0.83 0.0 0 1 199.80 399.72
  Q 199.62 341.51 199.83 271.27
  Q 199.84 269.57 199.41 268.14
  A 0.66 0.66 0.0 0 1 200.04 267.29
  Q 238.96 267.22 281.18 267.25
  C 292.10 267.26 305.41 266.60 314.55 267.00
  Q 323.16 267.38 332.39 267.33
  A 0.74 0.74 0.0 0 1 333.13 268.07
  L 332.96 332.98
  A 0.76 0.76 0.0 0 1 332.19 333.74
  Q 307.29 333.49 267.51 333.81
  Q 267.18 333.81 266.89 333.98
  Z"
/>
<path fill="#ffa7c0" d="
  M 17.92 768.10
  A 0.24 0.24 0.0 0 1 17.84 767.69
  Q 18.39 767.20 19.22 767.53
  Q 22.55 768.84 25.49 770.01
  Q 27.72 770.90 28.35 771.44
  Q 32.19 774.72 27.74 772.33
  Q 23.80 770.22 17.92 768.10
  Z"
/>
<path fill="#ffa7c0" d="
  M 19.39 774.19
  Q 19.37 774.35 19.20 774.45
  Q 18.54 774.83 18.52 774.07
  L 18.45 771.44
  Q 18.44 770.87 18.99 771.01
  L 19.25 771.08
  A 0.82 0.81 4.2 0 1 19.86 771.78
  C 19.93 772.54 19.48 773.42 19.39 774.19
  Z"
/>
<path fill="#ffa7c0" d="
  M 28.24 778.84
  L 18.33 778.55
  A 0.26 0.25 -82.1 0 1 18.09 778.22
  L 18.17 777.91
  A 0.53 0.53 0.0 0 1 18.76 777.52
  Q 23.34 778.17 27.37 778.06
  Q 28.52 778.03 29.24 778.96
  Q 29.56 779.37 29.04 779.44
  Q 28.76 779.47 28.66 779.15
  A 0.46 0.45 -8.2 0 0 28.24 778.84
  Z"
/>
<path fill="#ffa7c0" d="
  M 21.65 786.51
  C 21.10 785.63 20.01 785.21 19.01 785.45
  Q 18.30 785.62 18.58 784.95
  Q 18.87 784.27 19.61 784.42
  Q 20.75 784.65 21.91 784.91
  Q 22.46 785.03 22.99 784.88
  C 24.75 784.40 26.97 783.84 28.41 785.32
  C 29.90 786.86 30.53 790.23 28.95 792.14
  Q 28.31 792.91 28.69 791.99
  C 29.67 789.59 29.51 787.12 27.24 785.76
  Q 24.18 783.93 22.33 786.54
  Q 21.97 787.03 21.65 786.51
  Z"
/>
<path fill="#ffa7c0" d="
  M 26.39 789.45
  L 26.53 790.50
  A 0.99 0.99 0.0 0 1 25.32 791.59
  L 23.88 791.26
  A 0.99 0.99 0.0 0 1 23.11 790.30
  L 23.10 789.02
  A 0.99 0.99 0.0 0 1 24.48 788.10
  L 25.80 788.67
  A 0.99 0.99 0.0 0 1 26.39 789.45
  Z"
/>
<path fill="#ffa7c0" d="
  M 18.54 788.93
  Q 18.60 788.05 19.47 788.16
  L 20.29 788.27
  A 0.53 0.53 0.0 0 1 20.75 788.78
  L 20.81 790.72
  Q 20.83 791.33 20.22 791.26
  Q 18.41 791.04 18.54 788.93
  Z"
/>
<path fill="#ffa7c0" d="
  M 28.20 798.66
  Q 29.41 800.05 29.52 801.53
  Q 29.60 802.55 29.07 801.68
  C 27.33 798.85 22.22 793.14 18.56 796.61
  A 0.06 0.06 0.0 0 1 18.47 796.61
  L 18.31 796.41
  Q 18.23 796.31 18.31 796.20
  C 19.50 794.65 21.33 793.57 23.25 794.57
  Q 25.81 795.90 28.20 798.66
  Z"
/>
<path fill="#ffa7c0" d="
  M 21.50 802.24
  A 0.35 0.35 0.0 0 1 21.16 802.61
  L 20.98 802.61
  A 2.39 1.80 -2.2 0 1 18.52 800.91
  L 18.52 800.79
  A 2.39 1.80 -2.2 0 1 20.84 798.90
  L 21.02 798.89
  A 0.35 0.35 0.0 0 1 21.38 799.23
  L 21.50 802.24
  Z"
/>
<path fill="#ffa7c0" d="
  M 24.43 799.44
  Q 25.73 800.32 25.46 801.74
  Q 25.36 802.25 24.88 802.33
  Q 24.38 802.41 24.31 801.91
  L 23.99 799.71
  Q 23.90 799.08 24.43 799.44
  Z"
/>
<path fill="#ffa7c0" d="
  M 24.41 806.60
  Q 28.26 808.24 29.64 812.29
  A 0.34 0.34 0.0 0 1 29.47 812.70
  L 29.20 812.83
  Q 29.02 812.92 28.93 812.73
  C 27.52 809.53 22.75 805.16 18.81 807.15
  Q 18.60 807.26 18.50 807.04
  L 18.40 806.79
  Q 18.37 806.71 18.44 806.66
  Q 20.37 805.42 22.66 805.18
  Q 23.09 805.13 23.31 805.50
  L 23.53 805.84
  Q 23.85 806.36 24.41 806.60
  Z"
/>
<path fill="#ffa7c0" d="
  M 21.49 813.44
  A 0.24 0.24 0.0 0 1 21.25 813.69
  L 20.91 813.69
  A 2.42 1.86 -0.6 0 1 18.47 811.86
  L 18.47 811.78
  A 2.42 1.86 -0.6 0 1 20.87 809.89
  L 21.21 809.89
  A 0.24 0.24 0.0 0 1 21.45 810.12
  L 21.49 813.44
  Z"
/>
<path fill="#ffa7c0" d="
  M 24.24 812.71
  Q 24.19 811.81 24.18 810.90
  Q 24.18 810.18 24.74 810.63
  Q 25.23 811.02 25.55 811.61
  Q 25.81 812.11 25.45 812.55
  Q 25.05 813.02 24.46 813.31
  Q 23.97 813.56 24.14 813.03
  Q 24.19 812.91 24.23 812.79
  Q 24.25 812.75 24.24 812.71
  Z"
/>
<path fill="#ffa7c0" d="
  M 22.79 817.98
  L 22.03 819.45
  Q 21.69 820.12 21.37 819.43
  Q 20.64 817.83 18.87 818.16
  Q 18.51 818.23 18.48 817.86
  L 18.46 817.51
  Q 18.45 817.46 18.51 817.44
  Q 19.96 817.08 21.25 817.36
  Q 21.74 817.46 22.17 817.21
  Q 24.42 815.89 26.69 817.00
  Q 30.75 818.98 29.81 824.29
  Q 29.77 824.52 29.54 824.48
  L 29.53 824.48
  Q 29.29 824.44 29.32 824.20
  Q 30.09 818.25 24.12 817.31
  A 1.28 1.27 18.0 0 0 22.79 817.98
  Z"
/>
<path fill="#ffa7c0" d="
  M 24.22 821.88
  Q 23.82 821.94 23.52 821.57
  A 0.51 0.50 48.9 0 1 23.56 820.88
  C 24.55 819.95 25.82 820.55 26.15 821.78
  Q 26.29 822.34 25.72 822.26
  Q 25.10 822.18 24.52 821.92
  Q 24.37 821.85 24.22 821.88
  Z"
/>
<path fill="#ffa7c0" d="
  M 20.34 821.73
  L 19.37 823.71
  Q 19.05 824.35 18.87 823.69
  Q 18.54 822.46 18.88 821.38
  Q 19.11 820.69 19.78 820.97
  L 20.10 821.11
  A 0.46 0.45 24.4 0 1 20.34 821.73
  Z"
/>
<path fill="#ffa7c0" d="
  M 29.57 832.41
  Q 23.91 829.01 17.99 827.10
  Q 16.96 826.77 17.95 826.35
  Q 18.55 826.10 18.92 825.61
  Q 19.25 825.17 19.60 825.59
  C 20.28 826.44 21.14 827.25 22.17 827.64
  C 24.18 828.42 29.25 830.03 29.71 832.31
  A 0.09 0.09 0.0 0 1 29.57 832.41
  Z"
/>
<path fill="#ffa7c0" d="
  M 19.38 832.86
  Q 18.60 834.46 18.52 832.68
  L 18.43 830.40
  Q 18.40 829.81 18.98 829.97
  L 19.43 830.09
  A 0.65 0.64 9.2 0 1 19.90 830.73
  Q 19.86 831.86 19.38 832.86
  Z"
/>
<path fill="#ffa7c0" d="
  M 26.76 837.01
  Q 28.37 836.85 29.33 838.03
  Q 29.92 838.75 29.03 838.45
  Q 28.62 838.32 28.26 838.10
  Q 27.87 837.86 27.41 837.84
  L 18.65 837.55
  A 0.32 0.32 0.0 0 1 18.34 837.19
  L 18.42 836.57
  Q 18.47 836.18 18.84 836.30
  Q 22.51 837.42 26.76 837.01
  Z"
/>
<path fill="#ffa7c0" d="
  M 19.63 839.85
  Q 20.72 839.91 20.36 840.85
  Q 20.22 841.21 19.84 841.30
  Q 19.21 841.46 19.19 840.81
  L 19.17 840.30
  A 0.43 0.43 0.0 0 1 19.63 839.85
  Z"
/>
<path fill="#ffa7c0" d="
  M 28.75 850.07
  C 30.41 846.35 27.63 843.83 24.13 843.49
  Q 23.76 843.46 23.91 843.12
  L 24.08 842.71
  A 0.42 0.40 -73.1 0 1 24.53 842.46
  Q 31.16 843.65 29.42 849.96
  A 0.33 0.32 14.2 0 1 29.02 850.19
  L 28.77 850.12
  A 0.04 0.03 -69.2 0 1 28.75 850.07
  Z"
/>
<path fill="#ffa7c0" d="
  M 18.72 844.72
  Q 19.39 845.65 20.59 845.71
  A 0.33 0.32 -85.2 0 1 20.90 846.08
  Q 20.68 847.79 21.37 849.29
  Q 21.65 849.89 20.98 849.79
  Q 20.75 849.75 20.62 849.57
  Q 19.15 847.57 18.43 844.85
  A 0.16 0.16 0.0 0 1 18.72 844.72
  Z"
/>
<path fill="#ffa7c0" d="
  M 24.30 846.70
  A 0.26 0.26 0.0 0 1 24.65 846.57
  L 24.81 846.64
  A 2.54 1.93 23.4 0 1 26.38 849.42
  L 26.32 849.55
  A 2.54 1.93 23.4 0 1 23.22 850.31
  L 23.06 850.24
  A 0.26 0.26 0.0 0 1 22.92 849.90
  L 24.30 846.70
  Z"
/>
<path fill="#ffa7c0" d="
  M 23.22 854.79
  L 22.33 855.55
  Q 21.95 855.88 21.66 855.47
  Q 21.34 855.02 21.37 854.35
  Q 21.40 853.77 21.98 853.77
  L 24.12 853.76
  Q 24.82 853.76 24.33 854.26
  Q 24.13 854.47 23.86 854.51
  Q 23.50 854.56 23.22 854.79
  Z"
/>
<path fill="#ffa7c0" d="
  M 25.19 855.03
  Q 25.03 854.29 25.69 854.66
  Q 26.90 855.35 27.63 856.61
  Q 28.00 857.24 27.29 857.07
  Q 25.53 856.64 25.19 855.03
  Z"
/>
<path fill="#ffa7c0" d="
  M 19.76 857.79
  Q 19.95 858.41 19.31 858.25
  Q 18.68 858.08 18.40 857.51
  A 0.48 0.48 0.0 0 1 19.06 856.88
  Q 19.57 857.18 19.76 857.79
  Z"
/>
<path fill="#ffa7c0" d="
  M 22.82 857.87
  A 0.77 0.77 0.0 0 1 23.30 858.50
  Q 23.35 859.03 23.05 859.45
  Q 22.77 859.82 22.31 859.75
  Q 21.41 859.62 20.96 858.77
  A 0.68 0.67 -24.8 0 1 21.31 857.83
  Q 22.01 857.55 22.82 857.87
  Z"
/>
<path fill="#ffa7c0" d="
  M 28.04 860.35
  Q 26.72 860.67 25.66 860.05
  Q 25.15 859.75 25.29 859.16
  Q 25.41 858.63 25.95 858.73
  Q 27.03 858.92 28.21 858.69
  Q 28.55 858.62 28.51 858.96
  L 28.41 859.92
  A 0.48 0.48 0.0 0 1 28.04 860.35
  Z"
/>
<path fill="#ffa7c0" d="
  M 32.49 870.55
  Q 24.02 870.47 15.49 870.52
  Q 15.38 870.52 15.38 870.41
  L 15.37 870.14
  A 0.49 0.49 0.0 0 1 15.85 869.64
  Q 25.40 869.49 31.96 869.73
  Q 32.89 869.76 33.20 870.66
  Q 33.39 871.20 32.94 870.84
  Q 32.90 870.80 32.87 870.76
  Q 32.73 870.56 32.49 870.55
  Z"
/>
<path fill="#ffa7c0" d="
  M 24.47 881.13
  L 25.07 880.90
  Q 25.61 880.70 25.32 881.20
  L 24.44 882.69
  Q 24.03 883.38 23.49 882.79
  Q 22.00 881.17 20.87 879.54
  Q 20.31 878.75 21.16 879.23
  Q 22.34 879.92 23.44 880.93
  A 1.02 1.01 -33.6 0 0 24.47 881.13
  Z"
/>
<path fill="#ffa7c0" d="
  M 28.30 884.74
  Q 24.78 885.65 21.15 884.92
  Q 19.30 884.55 16.56 885.37
  Q 16.49 885.39 16.47 885.32
  L 16.31 884.92
  A 0.26 0.25 -23.0 0 1 16.45 884.59
  Q 18.24 883.84 20.13 883.78
  C 21.58 883.73 22.42 884.69 23.78 884.87
  A 1.07 1.02 33.0 0 0 24.48 884.74
  L 28.47 882.45
  Q 28.88 882.21 28.75 882.67
  Q 28.52 883.49 28.58 884.34
  Q 28.60 884.66 28.30 884.74
  Z"
/>
<path fill="#ffa7c0" d="
  M 21.04 889.24
  Q 20.55 888.97 20.27 888.52
  A 0.30 0.29 75.0 0 1 20.53 888.06
  L 20.99 888.08
  Q 21.63 888.11 21.47 888.74
  L 21.38 889.09
  A 0.23 0.23 0.0 0 1 21.04 889.24
  Z"
/>
<path fill="#ffa7c0" d="
  M 27.80 888.82
  Q 27.65 888.83 27.56 888.67
  Q 27.45 888.51 27.64 888.47
  Q 27.99 888.40 28.36 888.45
  Q 28.89 888.51 29.08 889.00
  Q 30.30 892.01 28.91 895.20
  Q 28.89 895.26 28.83 895.24
  L 28.58 895.19
  Q 28.51 895.17 28.53 895.11
  C 28.98 893.37 29.70 890.61 28.41 889.10
  Q 28.17 888.82 27.80 888.82
  Z"
/>
<path fill="#ffa7c0" d="
  M 22.13 890.61
  C 22.66 892.54 24.34 894.51 26.26 892.90
  Q 26.94 892.32 26.60 893.15
  Q 26.19 894.12 25.37 894.53
  A 2.42 2.42 0.0 0 1 22.31 893.79
  Q 21.30 892.39 21.47 890.66
  Q 21.64 888.83 22.13 890.61
  Z"
/>
<path fill="#ffa7c0" d="
  M 29.13 904.13
  C 29.79 898.93 24.29 897.32 20.55 899.74
  Q 19.71 900.28 20.33 899.51
  C 22.59 896.71 24.33 898.04 26.99 896.89
  Q 27.98 896.46 27.40 897.38
  Q 27.35 897.47 27.33 897.57
  Q 27.25 898.04 27.55 898.39
  Q 28.38 899.37 29.20 900.33
  Q 29.54 900.72 29.61 901.23
  C 29.88 903.24 29.51 907.43 27.51 908.76
  Q 26.76 909.26 26.50 910.10
  Q 26.32 910.66 25.74 910.56
  Q 23.80 910.24 21.81 911.00
  Q 21.01 911.31 21.17 910.47
  L 21.45 909.05
  A 0.44 0.44 0.0 0 1 22.13 908.78
  Q 23.91 910.01 24.96 909.56
  Q 28.63 908.01 29.13 904.13
  Z"
/>
<path fill="#ffa7c0" d="
  M 22.95 902.70
  A 1.21 1.21 0.0 0 0 23.46 904.24
  Q 25.14 905.18 26.49 903.54
  Q 26.56 903.46 26.65 903.53
  L 26.85 903.72
  Q 26.96 903.81 26.90 903.94
  Q 25.80 906.26 23.56 905.68
  A 2.52 2.51 7.6 0 1 21.69 903.24
  Q 21.69 901.50 23.05 901.26
  Q 23.62 901.16 23.39 901.69
  L 22.95 902.70
  Z"
/>
<path fill="#ffa7c0" d="
  M 28.86 918.07
  Q 27.08 914.86 23.15 915.34
  A 0.39 0.38 80.5 0 1 22.72 915.03
  L 22.63 914.53
  Q 22.57 914.19 22.92 914.20
  L 26.64 914.28
  Q 27.13 914.29 27.33 914.74
  Q 27.71 915.63 28.46 916.31
  C 30.24 917.94 30.28 920.52 29.35 922.69
  Q 29.23 922.96 28.97 922.83
  L 28.73 922.72
  Q 28.68 922.69 28.71 922.64
  Q 30.00 920.15 28.86 918.07
  Z"
/>
<path fill="#d43b67" d="
  M 18.49 918.23
  Q 18.06 917.70 17.80 918.04
  Q 17.50 918.42 17.69 918.98
  Q 17.23 916.65 17.92 914.67
  Q 18.13 914.07 18.19 914.70
  Q 18.25 915.27 18.06 915.79
  A 1.39 1.34 -44.1 0 0 18.03 916.71
  L 18.49 918.23
  Z"
/>
<path fill="#ffa7c0" d="
  M 18.49 918.23
  Q 18.84 919.03 19.76 919.39
  Q 20.36 919.62 20.22 920.25
  L 19.99 921.30
  Q 19.89 921.73 19.45 921.75
  L 18.75 921.77
  A 0.77 0.76 85.1 0 1 17.96 921.10
  L 17.69 918.98
  Q 17.50 918.42 17.80 918.04
  Q 18.06 917.70 18.49 918.23
  Z"
/>
<path fill="#ffa7c0" d="
  M 24.67 919.62
  Q 23.76 921.47 22.07 922.80
  Q 22.03 922.83 21.98 922.79
  L 21.79 922.63
  Q 21.66 922.52 21.78 922.40
  Q 23.35 920.90 24.28 918.78
  Q 24.61 918.04 25.40 918.23
  Q 25.93 918.35 26.05 918.87
  Q 26.21 919.61 25.46 919.50
  L 25.03 919.43
  A 0.36 0.35 16.5 0 0 24.67 919.62
  Z"
/>
<path fill="#ffa7c0" d="
  M 22.10 930.61
  Q 21.90 930.80 21.58 930.80
  Q 21.18 930.80 21.45 930.50
  Q 22.85 928.97 24.70 930.01
  Q 25.27 930.33 24.62 930.40
  Q 23.46 930.53 22.10 930.61
  Z"
/>
<path fill="#ffa7c0" d="
  M 24.61 936.57
  Q 25.84 934.06 25.38 930.98
  Q 25.35 930.73 25.60 930.74
  L 26.12 930.77
  Q 26.29 930.78 26.32 930.95
  Q 26.59 932.78 26.78 934.77
  C 26.90 935.98 26.00 936.90 24.79 936.87
  Q 24.46 936.87 24.61 936.57
  Z"
/>
<path fill="#ffa7c0" d="
  M 29.62 931.64
  C 30.61 933.77 29.88 934.65 29.22 936.61
  Q 29.05 937.10 28.59 937.37
  Q 27.96 937.73 28.36 937.12
  Q 29.91 934.74 29.24 931.84
  Q 29.19 931.61 29.42 931.55
  L 29.43 931.55
  Q 29.56 931.52 29.62 931.64
  Z"
/>
<path fill="#ffa7c0" d="
  M 21.42 935.37
  A 1.74 1.71 35.1 0 1 21.28 934.60
  Q 21.34 933.35 22.38 933.01
  Q 23.03 932.79 23.01 933.48
  L 22.95 936.02
  Q 22.94 936.67 22.36 936.37
  Q 21.72 936.04 21.42 935.37
  Z"
/>
<path fill="#ffa7c0" d="
  M 27.48 942.03
  C 26.01 940.16 23.03 940.50 21.14 941.15
  Q 20.60 941.34 20.98 940.91
  C 21.59 940.22 22.29 939.34 23.32 939.46
  Q 25.02 939.65 26.70 939.10
  Q 27.07 938.98 27.11 939.37
  Q 27.31 941.07 28.59 942.36
  C 29.89 943.67 30.05 945.71 29.88 947.44
  Q 29.86 947.64 29.66 947.66
  L 29.39 947.69
  Q 29.16 947.72 29.20 947.49
  Q 29.66 944.78 27.48 942.03
  Z"
/>
<path fill="#ffa7c0" d="
  M 25.03 946.88
  L 21.72 947.24
  A 0.59 0.58 4.4 0 1 21.09 946.51
  Q 21.52 944.91 22.70 943.64
  Q 23.43 942.85 23.37 943.93
  L 23.28 945.53
  A 1.03 1.03 0.0 0 0 25.06 946.30
  L 25.68 945.65
  A 0.57 0.56 40.6 0 1 26.44 945.60
  Q 26.86 945.94 27.09 946.41
  Q 27.37 946.99 26.72 947.05
  Q 26.16 947.11 25.64 946.94
  A 1.39 1.35 49.9 0 0 25.03 946.88
  Z"
/>
<path fill="#ffa7c0" d="
  M 17.98 947.54
  L 16.51 947.01
  Q 15.90 946.79 16.49 946.51
  L 17.91 945.84
  Q 18.79 945.42 18.77 946.39
  L 18.76 947.01
  Q 18.74 947.81 17.98 947.54
  Z"
/>
<path fill="#ffa7c0" d="
  M 29.10 957.12
  Q 29.17 950.76 22.02 951.49
  A 0.29 0.29 0.0 0 1 21.70 951.24
  L 21.65 950.87
  Q 21.58 950.34 22.11 950.33
  L 26.48 950.17
  Q 27.05 950.14 27.26 950.68
  Q 27.69 951.74 28.51 952.52
  C 30.11 954.04 30.06 956.72 29.13 958.54
  Q 28.69 959.40 28.92 958.46
  Q 29.09 957.78 29.10 957.12
  Z"
/>
<path fill="#ffa7c0" d="
  M 23.28 955.00
  Q 22.26 957.37 24.89 957.43
  Q 25.72 957.45 26.34 956.79
  Q 26.83 956.26 26.82 956.98
  C 26.81 959.78 20.89 959.23 21.55 955.69
  Q 21.64 955.21 22.00 954.87
  Q 22.33 954.56 22.80 954.43
  Q 23.62 954.21 23.28 955.00
  Z"
/>
<path fill="#ffa7c0" d="
  M 27.24 961.40
  A 0.35 0.35 0.0 0 1 27.50 961.49
  Q 30.96 964.84 29.26 968.93
  Q 28.78 970.09 29.03 968.86
  C 29.51 966.48 29.08 962.31 25.64 962.82
  Q 20.97 963.51 16.28 963.29
  Q 16.21 963.28 16.21 963.22
  L 16.20 962.94
  Q 16.18 962.55 16.57 962.51
  L 27.24 961.40
  Z"
/>
<path fill="#ffa7c0" d="
  M 24.72 968.30
  C 25.43 968.41 25.87 967.97 26.34 967.53
  Q 27.11 966.79 26.82 967.82
  C 26.41 969.27 24.32 970.45 22.99 969.35
  Q 21.46 968.09 21.18 966.32
  Q 21.07 965.60 21.79 965.75
  L 22.15 965.82
  A 1.13 1.12 86.8 0 1 23.00 966.59
  Q 23.46 968.10 24.72 968.30
  Z"
/>
<path fill="#ffa7c0" d="
  M 19.15 976.01
  Q 16.66 977.78 19.71 978.05
  Q 21.00 978.17 22.32 977.77
  Q 22.98 977.58 22.99 978.27
  L 23.01 980.28
  Q 23.02 980.88 22.58 980.46
  Q 21.40 979.32 19.62 979.49
  Q 18.63 979.59 18.26 978.67
  Q 17.94 977.90 17.38 977.27
  A 0.68 0.67 56.7 0 1 17.59 976.23
  L 28.78 970.69
  Q 28.82 970.67 28.82 970.72
  L 28.57 972.45
  Q 28.54 972.69 28.30 972.76
  Q 26.25 973.37 24.31 974.27
  C 22.62 975.07 20.73 974.89 19.15 976.01
  Z"
/>
<path fill="#ffa7c0" d="
  M 25.34 980.12
  Q 25.61 978.74 25.22 977.41
  Q 25.07 976.89 25.53 976.59
  Q 26.22 976.15 27.04 976.09
  Q 27.81 976.04 27.26 976.58
  C 24.75 979.04 27.85 980.67 29.20 982.26
  Q 29.85 983.02 28.94 982.62
  L 25.97 981.32
  A 1.09 1.09 0.0 0 1 25.34 980.12
  Z"
/>
</svg>
